<mxfile host="app.diagrams.net" agent="Mozilla/5.0 (Windows NT 10.0; Win64; x64) AppleWebKit/537.36 (KHTML, like Gecko) Chrome/136.0.0.0 Safari/537.36" version="27.0.6">
  <diagram name="Page-1" id="2YBvvXClWsGukQMizWep">
    <mxGraphModel dx="1580" dy="864" grid="1" gridSize="10" guides="1" tooltips="1" connect="1" arrows="1" fold="1" page="1" pageScale="1" pageWidth="850" pageHeight="1100" math="0" shadow="0">
      <root>
        <mxCell id="0" />
        <mxCell id="1" parent="0" />
        <mxCell id="spqHErLg-ng55cuyKxT9-11" value="&lt;div&gt;&lt;br&gt;&lt;/div&gt;&lt;div&gt;&lt;br&gt;&lt;/div&gt;&lt;div&gt;&lt;br&gt;&lt;/div&gt;&lt;div&gt;&lt;br&gt;&lt;/div&gt;&lt;div&gt;Pegawai&lt;/div&gt;" style="shape=umlLifeline;perimeter=lifelinePerimeter;whiteSpace=wrap;html=1;container=1;dropTarget=0;collapsible=0;recursiveResize=0;outlineConnect=0;portConstraint=eastwest;newEdgeStyle={&quot;curved&quot;:0,&quot;rounded&quot;:0};participant=umlActor;size=40;" vertex="1" parent="1">
          <mxGeometry x="500" y="470" width="20" height="480" as="geometry" />
        </mxCell>
        <mxCell id="spqHErLg-ng55cuyKxT9-12" value="&lt;div&gt;&lt;br&gt;&lt;/div&gt;&lt;div&gt;&lt;br&gt;&lt;/div&gt;&lt;div&gt;&lt;br&gt;&lt;/div&gt;&lt;div&gt;&lt;br&gt;&lt;/div&gt;&lt;div&gt;&lt;br&gt;&lt;/div&gt;&lt;div&gt;form slip remunerasi&lt;/div&gt;" style="shape=umlLifeline;perimeter=lifelinePerimeter;whiteSpace=wrap;html=1;container=1;dropTarget=0;collapsible=0;recursiveResize=0;outlineConnect=0;portConstraint=eastwest;newEdgeStyle={&quot;curved&quot;:0,&quot;rounded&quot;:0};participant=umlBoundary;" vertex="1" parent="1">
          <mxGeometry x="660" y="460" width="50" height="500" as="geometry" />
        </mxCell>
        <mxCell id="spqHErLg-ng55cuyKxT9-10" value="" style="html=1;points=[[0,0,0,0,5],[0,1,0,0,-5],[1,0,0,0,5],[1,1,0,0,-5]];perimeter=orthogonalPerimeter;outlineConnect=0;targetShapes=umlLifeline;portConstraint=eastwest;newEdgeStyle={&quot;curved&quot;:0,&quot;rounded&quot;:0};" vertex="1" parent="spqHErLg-ng55cuyKxT9-12">
          <mxGeometry x="20" y="70" width="10" height="400" as="geometry" />
        </mxCell>
        <mxCell id="spqHErLg-ng55cuyKxT9-13" value="" style="endArrow=classic;html=1;rounded=0;" edge="1" parent="1" source="spqHErLg-ng55cuyKxT9-11" target="spqHErLg-ng55cuyKxT9-12">
          <mxGeometry width="50" height="50" relative="1" as="geometry">
            <mxPoint x="530" y="560" as="sourcePoint" />
            <mxPoint x="550" y="570" as="targetPoint" />
            <Array as="points">
              <mxPoint x="560" y="560" />
            </Array>
          </mxGeometry>
        </mxCell>
        <mxCell id="spqHErLg-ng55cuyKxT9-14" value="buka halaman slip" style="edgeLabel;html=1;align=center;verticalAlign=middle;resizable=0;points=[];" vertex="1" connectable="0" parent="spqHErLg-ng55cuyKxT9-13">
          <mxGeometry x="-0.3686" y="-1" relative="1" as="geometry">
            <mxPoint x="35" as="offset" />
          </mxGeometry>
        </mxCell>
        <mxCell id="spqHErLg-ng55cuyKxT9-15" value="&lt;div&gt;&lt;br&gt;&lt;/div&gt;&lt;div&gt;&lt;br&gt;&lt;/div&gt;&lt;div&gt;&lt;br&gt;&lt;/div&gt;&lt;div&gt;&lt;br&gt;&lt;/div&gt;&lt;div&gt;&lt;br&gt;&lt;/div&gt;&lt;div&gt;Remunerasi controller&lt;/div&gt;" style="shape=umlLifeline;perimeter=lifelinePerimeter;whiteSpace=wrap;html=1;container=1;dropTarget=0;collapsible=0;recursiveResize=0;outlineConnect=0;portConstraint=eastwest;newEdgeStyle={&quot;curved&quot;:0,&quot;rounded&quot;:0};participant=umlControl;" vertex="1" parent="1">
          <mxGeometry x="790" y="460" width="40" height="580" as="geometry" />
        </mxCell>
        <mxCell id="spqHErLg-ng55cuyKxT9-40" value="" style="html=1;points=[[0,0,0,0,5],[0,1,0,0,-5],[1,0,0,0,5],[1,1,0,0,-5]];perimeter=orthogonalPerimeter;outlineConnect=0;targetShapes=umlLifeline;portConstraint=eastwest;newEdgeStyle={&quot;curved&quot;:0,&quot;rounded&quot;:0};" vertex="1" parent="spqHErLg-ng55cuyKxT9-15">
          <mxGeometry x="15" y="70" width="10" height="400" as="geometry" />
        </mxCell>
        <mxCell id="spqHErLg-ng55cuyKxT9-16" value="&lt;div&gt;&lt;br&gt;&lt;/div&gt;&lt;div&gt;&lt;br&gt;&lt;/div&gt;&lt;div&gt;&lt;br&gt;&lt;/div&gt;&lt;div&gt;&lt;br&gt;&lt;/div&gt;&lt;div&gt;&lt;br&gt;&lt;/div&gt;&lt;div&gt;profil pegawai&lt;/div&gt;" style="shape=umlLifeline;perimeter=lifelinePerimeter;whiteSpace=wrap;html=1;container=1;dropTarget=0;collapsible=0;recursiveResize=0;outlineConnect=0;portConstraint=eastwest;newEdgeStyle={&quot;curved&quot;:0,&quot;rounded&quot;:0};participant=umlEntity;" vertex="1" parent="1">
          <mxGeometry x="913" y="460" width="40" height="300" as="geometry" />
        </mxCell>
        <mxCell id="spqHErLg-ng55cuyKxT9-18" value="&lt;div&gt;&lt;br&gt;&lt;/div&gt;&lt;div&gt;&lt;br&gt;&lt;/div&gt;&lt;div&gt;&lt;br&gt;&lt;/div&gt;&lt;div&gt;&lt;br&gt;&lt;/div&gt;&lt;div&gt;&lt;br&gt;&lt;/div&gt;&lt;div&gt;kehadiran pegawa&lt;/div&gt;" style="shape=umlLifeline;perimeter=lifelinePerimeter;whiteSpace=wrap;html=1;container=1;dropTarget=0;collapsible=0;recursiveResize=0;outlineConnect=0;portConstraint=eastwest;newEdgeStyle={&quot;curved&quot;:0,&quot;rounded&quot;:0};participant=umlEntity;" vertex="1" parent="1">
          <mxGeometry x="1030" y="460" width="40" height="300" as="geometry" />
        </mxCell>
        <mxCell id="spqHErLg-ng55cuyKxT9-19" value="&lt;div&gt;&lt;br&gt;&lt;/div&gt;&lt;div&gt;&lt;br&gt;&lt;/div&gt;&lt;div&gt;&lt;br&gt;&lt;/div&gt;&lt;div&gt;&lt;br&gt;&lt;/div&gt;&lt;div&gt;&lt;br&gt;&lt;/div&gt;&lt;div&gt;evaluasi pegawai&lt;/div&gt;" style="shape=umlLifeline;perimeter=lifelinePerimeter;whiteSpace=wrap;html=1;container=1;dropTarget=0;collapsible=0;recursiveResize=0;outlineConnect=0;portConstraint=eastwest;newEdgeStyle={&quot;curved&quot;:0,&quot;rounded&quot;:0};participant=umlEntity;" vertex="1" parent="1">
          <mxGeometry x="1150" y="460" width="40" height="300" as="geometry" />
        </mxCell>
        <mxCell id="spqHErLg-ng55cuyKxT9-20" value="" style="endArrow=classic;html=1;rounded=0;" edge="1" parent="1" source="spqHErLg-ng55cuyKxT9-12" target="spqHErLg-ng55cuyKxT9-15">
          <mxGeometry width="50" height="50" relative="1" as="geometry">
            <mxPoint x="650" y="580" as="sourcePoint" />
            <mxPoint x="800" y="580" as="targetPoint" />
            <Array as="points">
              <mxPoint x="700" y="580" />
            </Array>
          </mxGeometry>
        </mxCell>
        <mxCell id="spqHErLg-ng55cuyKxT9-21" value="request slip" style="edgeLabel;html=1;align=center;verticalAlign=middle;resizable=0;points=[];" vertex="1" connectable="0" parent="spqHErLg-ng55cuyKxT9-20">
          <mxGeometry x="-0.3686" y="-1" relative="1" as="geometry">
            <mxPoint x="17" as="offset" />
          </mxGeometry>
        </mxCell>
        <mxCell id="spqHErLg-ng55cuyKxT9-22" value="" style="endArrow=classic;html=1;rounded=0;entryX=0.425;entryY=0.401;entryDx=0;entryDy=0;entryPerimeter=0;" edge="1" parent="1">
          <mxGeometry width="50" height="50" relative="1" as="geometry">
            <mxPoint x="810" y="609.66" as="sourcePoint" />
            <mxPoint x="932" y="609.66" as="targetPoint" />
            <Array as="points">
              <mxPoint x="825" y="609.66" />
            </Array>
          </mxGeometry>
        </mxCell>
        <mxCell id="spqHErLg-ng55cuyKxT9-23" value="getDataProfil" style="edgeLabel;html=1;align=center;verticalAlign=middle;resizable=0;points=[];" vertex="1" connectable="0" parent="spqHErLg-ng55cuyKxT9-22">
          <mxGeometry x="-0.3686" y="-1" relative="1" as="geometry">
            <mxPoint x="17" as="offset" />
          </mxGeometry>
        </mxCell>
        <mxCell id="spqHErLg-ng55cuyKxT9-24" value="" style="endArrow=classic;html=1;rounded=0;entryX=0.425;entryY=0.401;entryDx=0;entryDy=0;entryPerimeter=0;" edge="1" parent="1">
          <mxGeometry width="50" height="50" relative="1" as="geometry">
            <mxPoint x="811.9003448275861" y="629.9999999999999" as="sourcePoint" />
            <mxPoint x="1054.09" y="630" as="targetPoint" />
            <Array as="points">
              <mxPoint x="947.09" y="630" />
            </Array>
          </mxGeometry>
        </mxCell>
        <mxCell id="spqHErLg-ng55cuyKxT9-25" value="getDataKehadira" style="edgeLabel;html=1;align=center;verticalAlign=middle;resizable=0;points=[];" vertex="1" connectable="0" parent="spqHErLg-ng55cuyKxT9-24">
          <mxGeometry x="-0.3686" y="-1" relative="1" as="geometry">
            <mxPoint x="92" as="offset" />
          </mxGeometry>
        </mxCell>
        <mxCell id="spqHErLg-ng55cuyKxT9-26" value="" style="endArrow=classic;html=1;rounded=0;entryX=0.425;entryY=0.401;entryDx=0;entryDy=0;entryPerimeter=0;" edge="1" parent="1" source="spqHErLg-ng55cuyKxT9-15">
          <mxGeometry width="50" height="50" relative="1" as="geometry">
            <mxPoint x="1050" y="650" as="sourcePoint" />
            <mxPoint x="1172" y="650" as="targetPoint" />
            <Array as="points">
              <mxPoint x="1065" y="650" />
            </Array>
          </mxGeometry>
        </mxCell>
        <mxCell id="spqHErLg-ng55cuyKxT9-27" value="getDataEvaluasi" style="edgeLabel;html=1;align=center;verticalAlign=middle;resizable=0;points=[];" vertex="1" connectable="0" parent="spqHErLg-ng55cuyKxT9-26">
          <mxGeometry x="-0.3686" y="-1" relative="1" as="geometry">
            <mxPoint x="186" as="offset" />
          </mxGeometry>
        </mxCell>
        <mxCell id="spqHErLg-ng55cuyKxT9-31" style="edgeStyle=orthogonalEdgeStyle;rounded=0;orthogonalLoop=1;jettySize=auto;html=1;curved=0;" edge="1" parent="1" source="spqHErLg-ng55cuyKxT9-15" target="spqHErLg-ng55cuyKxT9-15">
          <mxGeometry relative="1" as="geometry">
            <mxPoint x="819.9985714285716" y="720" as="sourcePoint" />
            <mxPoint x="819.9985714285716" y="740" as="targetPoint" />
            <Array as="points">
              <mxPoint x="850" y="720" />
              <mxPoint x="850" y="740" />
            </Array>
          </mxGeometry>
        </mxCell>
        <mxCell id="spqHErLg-ng55cuyKxT9-37" value="hitung uang makan" style="edgeLabel;html=1;align=center;verticalAlign=middle;resizable=0;points=[];" vertex="1" connectable="0" parent="spqHErLg-ng55cuyKxT9-31">
          <mxGeometry x="-0.5877" y="-1" relative="1" as="geometry">
            <mxPoint as="offset" />
          </mxGeometry>
        </mxCell>
        <mxCell id="spqHErLg-ng55cuyKxT9-32" style="edgeStyle=orthogonalEdgeStyle;rounded=0;orthogonalLoop=1;jettySize=auto;html=1;curved=0;" edge="1" parent="1" source="spqHErLg-ng55cuyKxT9-15" target="spqHErLg-ng55cuyKxT9-15">
          <mxGeometry relative="1" as="geometry">
            <Array as="points">
              <mxPoint x="850" y="750" />
              <mxPoint x="850" y="770" />
            </Array>
          </mxGeometry>
        </mxCell>
        <mxCell id="spqHErLg-ng55cuyKxT9-38" value="hitung tunjangan" style="edgeLabel;html=1;align=center;verticalAlign=middle;resizable=0;points=[];" vertex="1" connectable="0" parent="spqHErLg-ng55cuyKxT9-32">
          <mxGeometry x="-0.6106" y="1" relative="1" as="geometry">
            <mxPoint as="offset" />
          </mxGeometry>
        </mxCell>
        <mxCell id="spqHErLg-ng55cuyKxT9-33" style="edgeStyle=orthogonalEdgeStyle;rounded=0;orthogonalLoop=1;jettySize=auto;html=1;curved=0;" edge="1" parent="1">
          <mxGeometry relative="1" as="geometry">
            <mxPoint x="809.9985714285716" y="780" as="sourcePoint" />
            <mxPoint x="809.9985714285716" y="800" as="targetPoint" />
            <Array as="points">
              <mxPoint x="850" y="780" />
              <mxPoint x="850" y="800" />
            </Array>
          </mxGeometry>
        </mxCell>
        <mxCell id="spqHErLg-ng55cuyKxT9-39" value="hitung uang makan" style="edgeLabel;html=1;align=center;verticalAlign=middle;resizable=0;points=[];" vertex="1" connectable="0" parent="spqHErLg-ng55cuyKxT9-33">
          <mxGeometry x="-0.4743" y="-1" relative="1" as="geometry">
            <mxPoint as="offset" />
          </mxGeometry>
        </mxCell>
        <mxCell id="spqHErLg-ng55cuyKxT9-34" style="edgeStyle=orthogonalEdgeStyle;rounded=0;orthogonalLoop=1;jettySize=auto;html=1;curved=0;" edge="1" parent="1" source="spqHErLg-ng55cuyKxT9-15" target="spqHErLg-ng55cuyKxT9-15">
          <mxGeometry relative="1" as="geometry">
            <mxPoint x="820.0003448275861" y="690" as="sourcePoint" />
            <mxPoint x="820.0003448275861" y="710" as="targetPoint" />
            <Array as="points">
              <mxPoint x="850" y="690" />
              <mxPoint x="850" y="710" />
            </Array>
          </mxGeometry>
        </mxCell>
        <mxCell id="spqHErLg-ng55cuyKxT9-36" value="hitung gaji" style="edgeLabel;html=1;align=center;verticalAlign=middle;resizable=0;points=[];" vertex="1" connectable="0" parent="spqHErLg-ng55cuyKxT9-34">
          <mxGeometry x="-0.485" y="-1" relative="1" as="geometry">
            <mxPoint as="offset" />
          </mxGeometry>
        </mxCell>
        <mxCell id="spqHErLg-ng55cuyKxT9-41" value="buat slip" style="html=1;verticalAlign=bottom;endArrow=open;dashed=1;endSize=8;curved=0;rounded=0;" edge="1" parent="1">
          <mxGeometry relative="1" as="geometry">
            <mxPoint x="805" y="810" as="sourcePoint" />
            <mxPoint x="690" y="810" as="targetPoint" />
          </mxGeometry>
        </mxCell>
        <mxCell id="spqHErLg-ng55cuyKxT9-42" value="hasil slip" style="html=1;verticalAlign=bottom;endArrow=block;curved=0;rounded=0;" edge="1" parent="1">
          <mxGeometry width="80" relative="1" as="geometry">
            <mxPoint x="685.0238095238096" y="850" as="sourcePoint" />
            <mxPoint x="805" y="850" as="targetPoint" />
          </mxGeometry>
        </mxCell>
        <mxCell id="spqHErLg-ng55cuyKxT9-43" value="tampilkan slip" style="html=1;verticalAlign=bottom;endArrow=open;dashed=1;endSize=8;curved=0;rounded=0;" edge="1" parent="1">
          <mxGeometry relative="1" as="geometry">
            <mxPoint x="805" y="890" as="sourcePoint" />
            <mxPoint x="690" y="890" as="targetPoint" />
          </mxGeometry>
        </mxCell>
        <mxCell id="spqHErLg-ng55cuyKxT9-44" value="tampil slip" style="html=1;verticalAlign=bottom;endArrow=open;dashed=1;endSize=8;curved=0;rounded=0;" edge="1" parent="1" target="spqHErLg-ng55cuyKxT9-11">
          <mxGeometry relative="1" as="geometry">
            <mxPoint x="685" y="910" as="sourcePoint" />
            <mxPoint x="570" y="910" as="targetPoint" />
          </mxGeometry>
        </mxCell>
      </root>
    </mxGraphModel>
  </diagram>
</mxfile>
